<?xml version="1.0" encoding="UTF-8"?>
<svg id="Layer_1" data-name="Layer 1" xmlns="http://www.w3.org/2000/svg" viewBox="0 0 648 648">
  <defs>
    <style>
      .cls-1 {
        fill: #f37023;
      }

      .cls-2 {
        fill: #f37024;
      }

      .cls-3 {
        fill: #feeb02;
      }

      .cls-4 {
        fill: #f36f24;
      }

      .cls-5 {
        fill: #fefefd;
      }

      .cls-6 {
        fill: #feea01;
      }

      .cls-7 {
        fill: #f16e22;
      }

      .cls-8 {
        fill: #fdfdfc;
      }

      .cls-9 {
        fill: #fff;
      }

      .cls-10 {
        fill: #f26f23;
      }

      .cls-11 {
        fill: #c85c1a;
      }

      .cls-12 {
        fill: #fefefe;
      }

      .cls-13 {
        fill: #ee6e24;
      }

      .cls-14 {
        fill: #f26f25;
      }
    </style>
  </defs>
  <path d="M527.53,543.51c-19.81,23.11-45.51,44.55-71.59,60.25-19.42,11.69-39.6,20.93-61.17,27.73l-14.12,4-9.42,2.22-8.53,1.71-3.73.67-13.24,2.06-4.97.52c-2.89.3-5.59.76-8.54.55l-1.71.37-9.53.04-2.77.52h-8.72s-3.16-.43-3.16-.43l-11.04-.28-9.37-.76-4.93-.53-7.63-1.02-2.31-.34-16.71-3.05-14.96-3.56-11.07-3.23-17.36-6.15c-21.28-8.16-41.33-18.6-60.28-31.24l-17.31-12.41c-2.45.06-4.73.11-6.93-.58-1.24-.39-2.31-.83-3.7-.69-8.49.83-15.78-4.26-18.47-12.25-1.32-3.93-1.17-7.96.53-11.97l-16.82-16.95-9.48-10.68c-8.93-10.06-16.71-20.89-23.75-32.35-.86-1.41-1.59-1.7-3.22-2.06l-9.69-2.15c-15.15-4.27-25.55-13.46-31.69-27.96-2.59-6.13-4.28-12.47-4.91-19.17l-.29-3.13.04-8.4c.51-6.96,1.89-13.47,4.05-20.11,1.54-4.76,3.79-8.93,6.01-13.41l-3.9-25.92-.68-6.78-.4-4.71-.23-11.11-.07-8.2.32-14.4.34-4.11c.19-2.34.38-4.47.69-6.8l.74-5.38,1.05-7.46.57-3.17.76-4.32,2.09-9.14c4.29-18.76,11.59-38.35,19.8-55.77,2.93-6.23,6.03-11.93,9.4-17.95,11.5-20.54,25.56-39.24,41.59-56.44l12.29-12.28c6.32-6.32,13.09-11.8,20.07-17.37.39-1.22.08-2.38-.08-3.62l-.62-4.97c-.67-5.35-2.1-9.95,1.27-14.05,1.29-1.56,2.55-2.95,4.57-3.63l7.15-2.4,29.32-10.17,17.61-5.88,11.1-3.62,34.51-10.34c2.08-.62,4.01-.93,5.94-2.04l.84-6.56.94-6.95.49-3.61.35-3.79c1.42-8.05,6.29-15.06,13.33-19.2,4-2.35,8.21-3.46,12.59-4.87l28.57-9.22,14.53-4.91,10.98-3.62c5-1.65,9.96.55,13.38,4.21,3.77,4.04,5.32,8.65,5.25,14.17-.06,4.29-1.24,8.1-4.53,11.07-1.78,1.6-3.71,2.45-6.06,3.21l-13.31,4.3-22.68,7.27-17.47,5.74c-2.17.71-3.08,3.22-3.68,5.12l-.59,3.9c-.07.43-.16.94.15,1.21.22.19.73.26,1.19.34l19.02,3.28,13.12.37,16.36.34,7.46.32,8.34.27,7.54.54,4.79.57,6.84.71,6.42.75,7.31,1.17,5.34,1.1c13.27,2.22,26.06,5.68,38.83,9.99,24.89,8.41,48.34,20.25,69.81,35.48,21.5,15.25,40.36,33.78,56.26,54.75l17.23,25.7c.29.43.55.55,1.01.49l14.73-1.91,5.49-.69,8.41-.83,5.74-.33,8.66-.24,14.85-.21c.22,0,.8.28.77.44-.05.22-.33.71-.57.88l-4.31,2.95-32.24,20.11-6.69,4.28c-.25.16-.54.47-.32.79,1.89,2.65,2.54,5.07,3.43,5.95.45.45,1.05.12,1.63.03l7.4-1.22,5.43-.69,5.17-.66,4.36-.42c2.91-.77,5.55-.81,8.47-1.06l6.55-.57c4.15-.36,8.11-.79,12.3-.52l3.38-.36,12.91.02c.54,0,1.19.31,1.07.75-.08.29-.69.71-1.04.89l-16.98,8.62-37.55,20.29,2.62,8.39c.14.44.58,1.05,1.18,1l9.17-.84,2.72-.34,9.42-.65.58-.27,30.2-.09c3.38-.01,6.44.06,9.72.6l.51.14c.17.05.34.12.49.24.26.22.14.59-.18.74l-16.51,8.01-13.38,6.41-25.91,13.08,1.16,5.39c.11.52.24.92.85.92l24.7.11,6.46.35,10.4.86,4.85.98c.28.06.86.09,1.08-.02.43-.21.88.63.35.9l-15.24,7.59-19.92,9.66-5.87,2.68.18,6.31.4,8,.32,4.82-.11,16.42-.28,7.94-2.84,24.68c-3.99,27.34-12.73,56.11-24.56,81.06-4.51,9.52-9.2,18.58-14.7,27.61-9.38,15.39-19.86,29.97-31.59,43.65Z"/>
  <g id="Generative_Object" data-name="Generative Object">
    <g>
      <path class="cls-9" d="M90.27,359.48l-9.99,8.71-4.69,4.51-4.52,4.91c2.77-.66,4.84-2.12,7.76-2.11l-6.78,7.63c-6.88,7.75-12.3,16.28-16.37,25.84-2.31,5.42-3.67,11-4.1,16.91-.32,4.45.84,8.97,3.06,12.75,3.01,5.14,8.9,6.95,14.46,5.24,4.72-1.45,8.73-4.02,12.47-7.3,5.7-5.02,10.41-10.68,14.6-17.09,7.31-11.18,13.38-22.89,18.55-35.26,5.33-12.75,10.21-25.36,14.19-38.61,3.75-12.5,6.84-24.82,9.46-37.56l2.28-12.76-11.96,4.17c-14.24,5.63-28.04,11.78-41.87,18.33-3.12,1.48-6.58,1.66-7.46-.46-.35-.83-.36-1.89.24-2.65l4.02-5.08c-3.94,1.19-8.45,3.05-10.59.45-2.46-2.99,2.43-8.7,5.73-11.88l4.85-4.68c-3.64.82-7.88,1.8-7.87-1.03.01-2.62,5.64-5.87,9.05-7.72,18.82-10.18,44.86-19.86,65.45-26.86,13.77-4.68,27.48-8.64,41.55-12.23l13.28-2.39c2.7-.49,7.69.57,8.08,3.31.19,1.31-.57,2.45-1.69,3.43,1.59.23,2.85.12,4.24.75,1.62.74,3.14,2.8,2.68,4.71s-1.99,3.63-3.62,4.56l-5.7,3.26c1.1.16,2.21-.06,2.95.65,1.93,1.84-4.46,5.24-8.17,6.67l-14.47,5.6-12.1,4.92c-1.08.44-1.57,1.19-1.81,2.33l-2.71,12.96-7.28,34.29-6.16,21.43-9.68,29.18c-4.53,13.65-10.21,26.6-16.76,39.42-6.47,12.68-14.15,24.37-23.59,34.99-6.38,7.18-13.56,13.22-21.81,18.05-9.14,5.35-19.11,7.8-29.63,7.09-9.15-.61-17.14-4.15-23.71-10.47-8.33-8.02-13.56-18.2-14.43-29.93-.71-9.53.67-19.01,4.15-27.88l4.51-10.17c6.17-11.12,13.9-21.05,23.88-28.9,2.56-2.01,5.04-3.78,8.03-5.11l-3.05,5.92c4.51-3.65,9.1-7.05,14.39-9.75,5.89-2.66,11.75-4.84,18.68-5.15Z"/>
      <path class="cls-11" d="M158.87,571.38c1.95-.93,2.57-.82,4.11.24,21.99,15.27,46.17,26.96,71.75,35.14,22.1,7.06,45.02,11.01,68.17,12.12,14.55.7,28.69-.23,43.09-2.04,42.78-5.35,83.78-21.95,118.62-47.3,38.57-28.06,68.11-64.13,88.63-107.22,15.12-31.75,23.94-66.37,25.6-101.47l-.02-19.8-.23-7.07,11.81-5.69c1.5,15.61,1.18,30.74-.33,46.16-4.44,45.12-19.83,88.57-44.42,126.57-12.85,19.85-27.67,38.11-44.82,54.33-11.01,10.41-22.71,19.96-35.19,28.55-37.62,25.93-81.12,42.13-126.61,46.74l-24.27,1.06c-18.22.12-36-1.75-53.85-5.41-40.73-8.34-78.01-25.4-111.66-49.44-.35-.25-.38-.33-.37-.53.02-.32.24-.27.48-.39l9.51-4.56Z"/>
      <path class="cls-9" d="M523.56,401.71c9.38,6.33,11.84,16.54,7.81,26.84-4.45,11.39-14.83,20.04-25.3,26.15-13.6,7.93-28.55,12.92-44.15,15.01-4.43.59-11.83,1.2-12.53-1.48-.24-.94.14-1.66.85-2.27l2.32-1.98-4.85.47c-3.65.36-8.08.67-9.22-2.14-.96-2.36,2.19-5.08,4.97-6.88l3.9-2.53h-3.84c-1.14,0-2.24-.65-2.59-1.47-1.4-3.27,3.83-6.55,7.81-8.09,1.48-.85,3.05-.85,4.65-.31,5.41-1.17,10.25-2.95,15.35-4.9,8.06-3.09,15.72-6.47,23.03-11.02,3.95-2.46,9.6-6.21,6.66-9.46-1.3-1.44-3.15-2.04-5-2.52l-15.42-3.98c-4.98-1.28-9.59-3.23-13.62-6.51-4.87-3.97-7.21-10.28-6.64-16.64.62-6.88,3.7-13.33,7.59-18.98,2.09-3.04,4.24-5.35,6.86-7.91,14.65-14.35,33.89-21.23,54.43-18.68,3.1.38,6.2,1.45,5.56,3.15-.15.38-.74.81-1.46.87-.51-.05-.46.57,0,.5l7.47.34c2,.09,4.64,1.59,4.57,3.76-.03.89-.6,1.51-1.65,2.36,2.02.56,2.98,2.02,2.71,4.03s-1.15,4.13-2.29,5.96c-4.4,7.06-11.55,16.07-19.87,17.83l2.01-4.85-5.19,4.12c-2.23,1.77-5.48,4.16-7.2,3.06-1.29-.83.79-3.6,2.49-5.81-1.31.26-2.37,1.44-3.68.93-.67-.26-.54-1.77-.18-2.33l3.83-6.04,3.86-5.66c-9.12,1.84-17.24,6.06-24.22,11.84-3.77,3.12-8.92,9.01-5.24,11.61,1.37.97,2.84,1.57,4.47,2.04l16.08,4.66c5.39,1.56,10.28,3.78,14.89,6.9Z"/>
      <path class="cls-9" d="M444.44,295.89c2.51-.23,5.42-.24,6.23,1.46.94,1.97-1.34,4.63-3.49,5.77l-10.23,5.41c1.95.09,3.59-.7,5.4.08-.37,1.51-1.54,2.57-2.84,3.23l-23.37,11.69-33.16,14.47-7.18,2.43c-1.39.47-3.29.09-4.52-.69l-1.98-2.8c-.74-.37-1.85-.09-2.46-.76-1.28-1.43-.5-2.67-1.07-3.78-3.41-.44-2.4-4.47-1.32-8.84,3.01-12.15,6.69-23.9,10.94-35.74-2.15-2.65-.81-4.94.97-7.78-.18-1.86-.16-3.59,1.35-4.87l2.79-2.37,8.4-22.49,1.89-5.01c-1.16-.43-2.71-.72-3.22-1.88-.79-1.79.35-3.45,1.87-4.82-1.27.07-2.25.27-3-.42-.87-.79-1.31-1.82-1.06-3.03.4-1.95,1.95-2.83,3.81-3.94-1.04-.14-1.89-.2-2.26-1-1.25-2.72,2.92-5.36,6.18-6.41l26.72-8.69,29.19-7.2,7.76-.63c1.58-.13,3.4,1.21,3.35,2.97-.04,1.48-1.56,2.25-2.67,2.95,2.58.18,5.33.41,6.04,2.2,1.14,2.85-1.91,5.31-5.21,6.88-1.58.75-3.3.98-4.59,2.19,1.13.07,2.41-.38,3.31.28.95.7.34,2.29-.7,2.7l-8.06,3.2-31.86,9.98-4.14,9.85-3.26,8.64c8.36-3.11,16.36-5.74,24.74-7.89,2.98-.76,7-1.12,7.87.67.3.63.2,1.44-.35,2.05l-1.47,1.63c1.91-.32,3.76-.49,5.47.36,1.12.56,1.24,2.21.5,3.23-1.7,2.35-4.23,3.76-6.83,5.06-1.17.59-2.42.8-3.41,2.06,2.21-.07,4.12-.46,4.06,1.03-.02.41-.18,1.06-.7,1.33l-5.86,2.98-20.07,7.84-12.8,5.14-8.59,24.05,38.66-14.93c5-1.45,14.71-5.22,15.68-1.48.33,1.28-.17,2.19-1.46,3.68Z"/>
      <path class="cls-9" d="M197.27,281.67c1.68-1.08,3.35-.91,4.81.59,2.5-3.74,7.15-6.3,9.87-3.79.85.78.88,1.71.95,3.17,1.68-1.16,4.28-1.04,4.94.94.61,1.82-.04,3.97-.81,5.71l-8.06,18.18-8.72,21.58c-2.46,7.23-4.64,14.27-5.78,21.81-.41,2.73-.55,5.29.43,7.82.78,2.02,2.86,2.87,4.9,1.86,2.42-1.2,4.45-3.21,6.02-5.48l4.77-6.87c7.68-12.32,13.69-25.3,19.1-38.76l4.81-13.01c3.13-9.75,5.52-19.49,7.92-29.43,1.05-4.37,4.96-7.32,7.58-5.57.73.49,1.13,1.39,1.49,2.75.99-2.03,2.22-3.71,4.2-4.72,1.43-.72,2.86-.38,3.89.84,1.26,1.51,1.42,3.4,1.41,5.52.73-1.07,1.53-2.45,2.99-2.35,1.56.1,2.61,1.92,2.57,3.48-.12,4.11-.57,7.96-1.59,12.09-5.49,22.16-13.52,43.45-24.06,63.74-3.83,7.38-23.99,43.11-30.09,37.28-.46-.44-.49-1.07-.7-2.12l-6.34,5.44c-6.09,5.23-14.35,7.62-22.18,4.89-5.05-1.77-8.67-6.13-10.64-11.08-4.85-12.26-1.91-27.95,2.16-40.47l3.53-10.86c4.7-12.84,9.63-25.4,15.8-37.58,1.18-2.33,2.64-4.22,4.81-5.61Z"/>
      <path class="cls-9" d="M318.63,328.34c3.26,3.18,11-1.82,14.64-5.26l12.78-12.07,11.06-11.07c.64-.64,1.34-1.26,2.48-1.2-.32,3.53-2.08,6.21-3.71,9.37l6.13-5.05c.44-.36,1.5-1.33,2.14-.79.3,1.89-.73,3.82-1.55,5.51l-3.44,7.09c1.04-.19,1.82-1.53,2.52-1.28,2.59.94-3.28,9.23-5.63,12.52-6.06,8.45-12.92,16.11-21.35,22.19-4.73,3.41-9.71,5.81-15.5,6.69-6.89,1.04-13.88-.7-18.91-5.59-6.94-6.75-8.45-17.17-7.85-26.72.46-7.28,2.3-13.99,4.56-20.87,2.73-8.29,6.06-15.87,10.2-23.56,6.29-11.68,13.42-22.65,22.3-32.51,5.66-6.27,11.68-11.86,18.86-16.23,5.43-3.3,14.28-5.93,15,.33,2.41-1.4,5.03-1.77,7.23-.47,3.08,1.82,4.81,4.97,5.55,8.45,2.6,12.21-4.25,29.67-12.54,38.91-.56.62-1.6,1.32-2.34.82s-.48-1.65-.77-2.52c-1.73,2.43-4.5,5.93-5.94,5.61-.39-.09-.85-.43-.88-.98l-.15-2.71c-.94.9-2.42,2.56-3.86,1.86-1.25-.62-.82-2.89-.36-4.14,2.71-7.38,5.26-14.59,6.18-22.84-3.09,1.44-5.5,3.39-7.69,5.72-7.53,8.01-13.65,16.83-18.63,26.64l-7.7,17.18c-2.86,6.39-7.71,22.18-2.83,26.94Z"/>
      <path class="cls-11" d="M283.98,538.16l6.27-3.62,11.13-5.55c1.81-.9,3.82-1.13,5.48-2.87l-24.85,4.67-59.78,12.31-8.11,1.64,31.17-13.25,33.88-12.43,33.45-10.18c17.2-4.73,34.4-8.23,51.94-11.4l27.07-4.32,30.47-4.62c16.52-2.51,38.33-2.69,55.43-.5-17.84,3.51-35.38,6.98-52.85,11.95l10.96-.27,3.83-.51.69.08c.22.03.5.43.09.52l-4.27,1-12.1,3.2-24.9,6.42-35.39,8.61-38.77,10.23-25.81,7.22-14.68,3.8c-1.43.37-2.68,1.14-4.47.98.99-1.5,2.61-2.21,4.14-3.1Z"/>
      <path class="cls-11" d="M36.38,371.87l-3.6,4.02-7.17,8.13c-1.65-9.45-2.54-18.64-2.97-28.1v-23.53c.65-15.13,2.96-29.74,6.66-44.39,7.57-29.95,19.6-58.01,36.59-83.69,7.71-11.66,15.93-22.69,25.23-33.01,3.08-3.41,5.84-6.5,9.08-9.74,6.75-6.75,13.42-13.3,21.03-19.38.65,2.55.21,4.77.4,7.09l.63,8.01-3.1,2.83-13.78,13.85c-12.46,13.25-23.5,27.59-33.16,43.11-11.09,17.82-19.81,36.92-26.16,56.91-7.4,23.3-10.42,41.46-11.11,65.87-.3,10.71.52,21.09,1.43,32.02Z"/>
      <path class="cls-9" d="M263.47,361.17l-2.98,5.65c-1.67,3.17-4.7,5.52-7.15,4.21-2.04-1.09-1.37-3.79-1.99-5.89-.56,1.02-1.26,1.46-2.16,1.42-3.21-.14-2.4-6.17-1.21-10.58,4.71-17.43,10.22-34.45,16.74-51.34l17.54-45.44c1.74-4.5,4.01-11.11,7.97-11.53.99-.11,1.81.32,2.42.84.67.58.55,1.41.91,2.48,1.58-1.99,2.96-3.52,4.97-4.51,1.6-.79,3.2-.44,4.31.93,1.17,1.45,1.01,3.16.64,5.14,1.17-.92,1.99-2.05,3.45-1.98,2.76.13,2.93,4.87,1.08,9.18-8,18.62-15.22,37.34-22.2,56.43l-15.1,44.78c-.46,1.37-1.33,2.38-2.36,3.14l-1.29-.44c-.29.74-1.71,2.29-2.53,1.78-1.26-.78-.6-2.61-1.06-4.26Z"/>
      <path class="cls-11" d="M525.31,204.5c-7.45-11.73-15.67-22.46-25.05-32.58l-13.29-13.32c-40.66-37.5-94.41-60.67-149.61-64.48l-.46-5.53c-.26-3.19-2.4-5.31-4.57-7.54,32.6,1.97,64.39,9.46,93.94,22.77,41.76,18.81,77.46,47.96,103.56,85.49l8.3,12.8-12.82,2.38Z"/>
      <path class="cls-11" d="M374.52,216.21c-3.18-1.06-5.76-1.85-9.11-1.61l10.91-6.86c.35-.22.53-.55.43-.75-.46-.96-3.16.92-5.55,1.09l17.8-11.42c-6.74-.36-12.63.82-19.31,1.17,6.3-3.6,12.76-5.97,19.56-8.21,11.85-3.9,23.73-6.64,36.41-8.09-6.83,3.34-13.56,6.36-19.83,11.05l17.45-3.05c16.87-2.95,33.64-4.89,51.15-4.8l-45.09,13.66-22.91,7.11-31.92,10.7Z"/>
      <path class="cls-7" d="M114.43,538.45c-1.47,1.57-2.2,3.32-3.15,4.99l-11.29-11.17c-11.61-12.06-22.01-25.01-31.18-39.19l12.54-2.92c7.97,11.52,16.43,22.1,25.77,32.28l11.43,11.63-4.11,4.37Z"/>
      <polygon class="cls-9" points="301.79 597.78 295.49 597.77 296.62 569.07 302.86 569.07 302.71 580.79 311.54 569.03 318.81 568.79 309.4 581.22 318.86 597.2 311.48 597.53 305.24 586.08 302.19 589.72 301.79 597.78"/>
      <polygon class="cls-9" points="370.03 576.97 359.91 579.52 361.19 585.71 372.98 582.87 374.04 588.28 355.84 592.49 350.87 564.4 368.59 560.17 369.7 565.56 358 568.44 359.09 574.2 368.77 571.91 370.03 576.97"/>
      <path class="cls-9" d="M271.12,590.65c1.5,1.06,3.68,1.26,5.16.5,1.61-.82,2.3-2.42,2.79-4.2l6.01.91c-.33,2.04-.82,4.16-2.24,5.71-2.84,3.12-7.15,3.89-11.19,3.22-5.3-.88-9.01-4.98-8.8-10.5.14-3.74.9-7.46,1.98-11.03,1.56-5.11,6.2-8.05,11.44-7.84,3.78.15,7.38,1.47,9.37,4.79,1.25,2.1,1.17,4.65.57,6.9l-5.84-.95c.37-2.51-.68-4.29-2.9-4.96-2.91-.88-5.73.61-6.3,3.67l-1.75,9.46c-.28,1.51.31,3.34,1.69,4.31Z"/>
      <path class="cls-10" d="M565.94,326.88c3.97-5.13,8.04-9.58,10.63-15.27.52-1.14,1.18-1.77,2.6-1.56l32.26-2.65-21.92,9.28-23.57,10.2Z"/>
      <path class="cls-1" d="M465.2,323.28l3.38,4.15c-5.62.14-10.59,1-15.94,1.93l-31.69,7.62,21.17-11.33,18.09-9.32,2.9,4.35c-1.68,1.43-3.54,2.16-5.63,3.14.33.33.81.28,1.4.21l6.32-.76Z"/>
      <polygon class="cls-9" points="345.16 588.7 346.02 594.22 328.89 596.5 326.47 567.8 332.91 567.13 335 589.81 345.16 588.7"/>
      <polygon class="cls-9" points="458.55 550.8 444.4 559.07 430.91 534.49 436.34 531.4 447.37 550.94 455.88 545.7 458.55 550.8"/>
      <polygon class="cls-9" points="479.58 535.88 466.19 545.36 450.66 522.12 455.71 518.56 468.11 537.13 476.39 531.34 479.58 535.88"/>
      <path class="cls-1" d="M554.95,219.53c-.74.49-1.6,1.12-2.39,1.04-4.31-2.96-8.77-5.03-13.94-7.05l40.73-7.65-24.4,13.65Z"/>
      <rect class="cls-9" x="235.87" y="575.13" width="28.86" height="6.64" transform="translate(-371.66 680.57) rotate(-75.93)"/>
      <path class="cls-10" d="M502.62,511.18l-11.67,10.1c-1.57,1.36-3.79,1.12-5.02-.36-1.25-1.51-1.09-3.9.61-5.06l8.12-5.54,21.17-13.48c-1.05,2.76-3.23,4.26-5.07,6.12l-8.14,8.22Z"/>
      <path class="cls-4" d="M584.16,286c.35-3.26.66-6.2.46-9.35-.03-.71.18-1.29.85-1.57l30.05-3.17-31.36,14.09Z"/>
      <polygon class="cls-2" points="578.22 247.99 573.81 240.02 602.9 235.39 578.22 247.99"/>
      <path class="cls-11" d="M199.12,571.95l-9.46-3.93c-2.69-1.12-5.31-2.11-7.72-4.39,6.68-.29,13.06.33,19.36,1.56,1.98.39,2.71,2.72,2.34,4.19-.49,1.94-2.33,3.48-4.53,2.57Z"/>
      <path class="cls-14" d="M67.28,430.9c-1.39,1.79-3.89,2.65-5.89,1.69-5.28-2.52-2.84-11.92.92-17.28l1.27,5.93c.73,3.38,1.85,6.36,3.7,9.66Z"/>
      <g>
        <path class="cls-11" d="M245.48,140.45c-23.52,13.09-36.3,39.92-31.82,66.34,1.82,10.72,6.33,20.58,13.36,28.82,4.1,4.8,8.97,8.31,14.41,11.76l-4.62,2.26c-2.03-1.12-4-1.26-6.43-.32-1.05-3.25-3.29-5.36-5.64-7.66-.6-1.44-.85-3.26-1.91-4.56-5.39-6.63-13.78-7.78-22.25-6.68l-2.09-32.42-3.54-59.3,20.81-7.41,77.33-26.48,34.42-11.55,1.2,16.82,1.03,15.35.89,11.88,5.33,82.73c-7.07,4.44-13.3,9.73-18.83,15.87l-3.87-1.04,6.77-9.12c4.62-7.55,7.4-15.58,8.75-24.35,1.21-7.9.67-15.58-1.23-23.41-2.41-9.92-7.31-18.82-13.95-26.52-2.24-2.6-4.66-4.57-7.27-6.72-7.92-6.5-17.21-10.11-27.44-11.1-11.56-1.11-23.04,1.03-33.41,6.8Z"/>
        <path class="cls-11" d="M164.4,178.83l12.09-16.6,10.31-13.63,5.78,83.93c-18.43,4.85-36.4,10.18-54.71,16.3l-4.66-80.11-1.23-23.35-.13-8.97,8.01,14.7c1.06,1.95,2.06,3.75,3.52,5.5l-1.7-7.88,3.55,5.21,13.51,23.86c.59,1.05,1.48,1.82,2.36,2.02s2.53.06,3.29-.98Z"/>
        <path class="cls-11" d="M134.54,108.46c32.29-11.38,63.74-21.41,96.13-31.21l-1.09,9.25c-.1.81-4.23,3.29-2.3,6.52.76,1.27,1.97,2.4,3.43,3.02,9.36,4.03,20.25,3.68,29.02-1.38,2.76-1.59,4.06-4.56,2.85-7.28-1.13-.92-1.51-2.13-1.3-3.57l1.6-10.98,33.29,8.12,24.56,6.43-20.49,6.84-81.65,27.25-25.67,8.46c-1.07.35-2,.69-3.13.57l-19.53-7.46c-11.87-4.68-23.56-9.03-35.72-14.59Z"/>
        <path class="cls-11" d="M184.17,137.46l-9.66,14.96-13.52,20.54-12.49-21.67c-6-10.41-11.56-20.73-16.8-31.5l-1.09-4.1,11.99,4.73,16.38,6.76,25.17,10.28Z"/>
        <path class="cls-3" d="M316.28,163.72c-7.86-12.68-20.65-21.39-35.61-23.25l-12.23-.15c-10.21.71-23.49,6.46-30.88,13.52-9.88,9.42-16.23,22.03-18.08,35.56-.67,4.93-.55,9.34.09,14.16,1.53,11.63,6.52,22.22,14.84,30.47,4.84,4.81,10.21,8.68,16.62,11.08,3.76-1.6,7.68-1.58,11.42-.26l6.7,3.32c1.15.58,2.68.09,3.84-.03,3.19-9.08,10.91-15.93,20.73-13.43,3.83-2.13,8.23-2.34,12-.25,20.08-18.38,24.84-47.74,10.59-70.74ZM237.4,203.16c-1.84,1.75-4.19,1.66-5.98.11-4.26-3.67-4.1-12.53.71-15.72,1.75-1.16,3.85-.95,5.43.41,3.76,3.25,4.26,10.98-.15,15.2ZM244.2,163.49c1.1-4.81,5.26-8.38,10.25-8.56,1.85-.07,3.42.99,4.3,2.17,2.69,3.61-1.61,11.39-9.37,12.35-1.69.21-3.11-.4-4.21-1.52-1.02-1.06-1.37-2.73-.98-4.44ZM259.99,230.88c-1.1,1.81-3.38,3.09-6.06,2.84-3.1-.3-5.59-2.04-7.43-4.28-2.15-2.61-2.29-6.52.11-9.02,1.67-1.73,4.49-2.29,6.75-1.57,5.17,1.63,9.45,7.36,6.63,12.04ZM272.78,201.02c-5.25,0-9.52-4.25-9.52-9.52s4.26-9.52,9.52-9.52,9.52,4.26,9.52,9.52-4.25,9.52-9.52,9.52ZM288.16,155.86c1.08-1.18,2.89-2.1,4.84-1.74,3.64.66,6.94,3.36,8.44,6.84,1,2.32.48,4.63-.92,6.17-1.57,1.72-3.86,1.94-6.18,1.17-3.54-1.16-6.7-3.8-7.31-7.56-.29-1.81,0-3.62,1.13-4.88ZM302.08,220.43c-.87,4.22-4.06,7.8-8.48,8.94-2.95.76-6.13-1.1-6.55-3.93-.74-5.05,2.41-9.49,6.93-11.45,2.11-.92,4.4-.73,6.07.61,1.66,1.33,2.52,3.51,2.04,5.83ZM313.66,200.42c-1.63.95-3.76.05-4.69-1.42-2.7-4.33-2.4-9.86.97-13.66.82-.93,2.07-1.25,3.23-1,4.43.96,6.02,12.86.49,16.09Z"/>
        <g>
          <path class="cls-5" d="M294.71,19.74l.79-.04,7.62,11.41c.68.67.8,1.26.37,1.78l-13.27,4.37-1.47.11c-3.02-3.34-5.78-7.25-7.91-11.28-.12-.22-.14-.5-.15-.78s.01-.59.06-.89l13.97-4.66Z"/>
          <path class="cls-12" d="M256.26,59.46l-.77,6.32-.61,6.31c-.59,1.48-3.12,1.46-4.61,1.41-3.67-.12-7.01-2.06-9.98-4.06l-.27-1.01,2.24-16.41.63-.44c3.61,3.86,7.81,6.25,12.59,7.15l.77.73Z"/>
          <path class="cls-5" d="M270.2,27.79l.79-.03c2.66,4.21,5.31,8.41,7.97,12.62l-.36.7-11.86,3.8c-.82.17-1.14.21-1.86-.14-2.87-1.39-7.55-8.6-8.93-11.66l.35-.76,10.96-3.5,2.94-1.04Z"/>
          <polygon class="cls-11" points="305.33 16.24 310.75 24.83 314.03 29.43 303.48 32.88 294.71 19.74 305.33 16.24"/>
          <path class="cls-11" d="M280.73,24.4c2.15,4.34,4.89,8.18,7.91,11.96.48.6.97.89,1.57.89l-11.61,3.83-8.4-13.29,10.53-3.38Z"/>
          <path class="cls-11" d="M258.76,50.87c-1.13,1.78-1.68,3.71-2.05,5.86l-.46,2.74c-3.91-.13-7.49-1.82-10.42-4.47l-2.52-2.27c-.35-.32-.72-.55-1.06-.7.38-2.77.67-5.44,1.6-8.06l1.34-2.54c.92-.27,1.82.1,2.68,1.12,2.93,3.3,6.36,5.77,10.28,7.41l.61.92Z"/>
          <path class="cls-11" d="M254.88,72.1l-1.34,10.48c-.12.33-.27.7-.58.88-3.36,1.92-12.35-.77-14.42-4.12l1.47-10.9c4.89,3.39,9.27,5.64,14.87,3.66Z"/>
          <path class="cls-5" d="M254.17,33.3l.96.64c1.77,4.35,4.89,7.94,8.04,11.35l.15,1.16c-2,.92-3.42,2.61-4.55,4.41-3.08-.93-6.03-2.73-8.47-5.09-1.64-1.58-3.13-3.19-5.1-4.36,1.96-3.72,5.2-6.39,8.98-8.12Z"/>
          <path class="cls-5" d="M253.54,82.57l-.74,7.09c-5.17,2.23-10.87,2.78-15.68-.01l1.42-10.31c.08-.08.18-.15.27-.18.42-.1,6.06,6.2,14.73,3.41Z"/>
          <path class="cls-13" d="M266.74,44.89l-3.42,1.57c-3.53-3.79-7.49-8.21-9.14-13.16l2.13-.97,3.36,5.78c1.48,2.36,4.97,6.31,7.08,6.78Z"/>
          <path class="cls-5" d="M318.05,13.24c-1.45-.51-2.41-.35-3.91.13l-8.82,2.87-.31.79c2.56,4.23,5.28,8.37,8.18,12.41h.84s7.6-2.8,7.6-2.8c1.41-.52,1.18-2.7,1.39-3.87.73-4.08-.92-8.1-4.97-9.52Z"/>
        </g>
      </g>
      <path class="cls-9" d="M359.19,365.42c-11.62-5.32-30.02-3.74-42.71-.83-12.01,2.76-23.42,6.97-34.24,12.68l-9.28,5.76c-1.44.9-2.96,3.5-2.08,4.46.29.31.74.46,1.38.63l-2.49,2.29c-2.07,1.92-3.6,4.71-2.31,6.29,1.09,1.34,4.11.55,6.52-.33-1.95,2.44-4.35,5.11-2.44,6.51,2.66,1.96,8.75-1.73,13.14-3.72l-5.84,17.72-7.03,20.48-2.97,1.88c-2.79,1.76-4.4,4.78-2.44,7-1.36,1.53-2.41,3.16-2.5,5.17-.08,1.69.89,2.76,2.45,3.03l-13.11,42.73c-1.26,4.09-2.34,9.21.73,9.47,1.01.08,1.69-.7,2.54-1.65l.23,3.82c.06.97.65,1.81,1.41,2.17,2.17,1.02,5.2-1.25,6.71-3.67l3.91-6.32c-.02,2.5.54,4.68,1.88,4.61.34-.02.78-.16,1.07-.48l2.12-2.43c2.35,2.51,3.91-2.6,5.37-6.83l12.38-35.88,9.88,10.57c6.23,6.67,12.9,12.5,20.38,17.74,3.97,2.78,7.98,5.01,12.6,6.51,3.39,1.1,7.33.08,7.43-1.97.04-.81-.43-1.45-.92-2.31,2.99.68,5.52,1.76,8.55,1.72,2.13-.03,4.62-1.05,5.3-3.09.46-1.36-.7-2.45-1.3-3.88,1.68.47,3.46,1.05,5.09.15.96-.53,1.78-1.62,1.82-2.53.03-.78-.28-2.25-1.05-2.89l-15.38-12.82-18.06-17.34c-2.49-2.39-4.76-4.72-6.71-7.56,10.41-6.43,20.2-13.34,29.34-21.42,7.06-6.23,13.24-13.04,18.07-21.09,2.64-4.39,4.49-8.99,4.88-14.09.77-9.63-3.71-16.31-12.34-20.26ZM332.4,401.31c-8.89,7.6-18.02,14.45-28.12,21.29l9.67-28.16c.42-1.22.35-2.2-.41-3.42,6.65-2.36,27-8.07,29.32-3.57,1.51,2.94-6.95,10.48-10.47,13.86Z"/>
      <path class="cls-6" d="M572.74,264c-2.23-9.48-6.79-18.02-13.21-25.27-2.61-2.94-4.97-5.72-8.24-7.81l-8.56-5.48c-11-5.89-23.61-8.19-36.03-5.87-15.38,2.88-28.85,11.73-37.68,24.69-15.66,22.99-12.98,55.06,6.5,75,7.76,7.95,17.54,13.1,28.3,15.79,8.96-2.18,18.81-2.84,27.58-.32l7.68-2.57c7.1-2.8,13.13-6.77,18.37-12.09l2.39-2.42c9.05-10.44,14.27-23.34,14.77-37.23.2-5.66-.59-10.9-1.89-16.42ZM506.67,232.41c6.21-4.98,15.8-3.15,16.23.18.72,5.48-14.03,7.27-16.41,2.66-.39-.75-.63-2.21.17-2.85ZM484.42,298.6c-1.35,2.48-3.92,3.14-6.4,1.69-4.5-2.64-6.8-8.47-5.42-13.57.47-1.72,1.96-2.9,3.01-3.45,2-.59,3.7-.07,5.18,1.12,3.87,3.09,6.05,9.73,3.61,14.21ZM483.17,262.85c-3.33.96-6.33-1.71-6.25-4.96.12-5,3.29-9.49,7.73-11.59,1.89-.9,4.27-.81,5.86.43,4.09,3.2,1.01,13.73-7.35,16.13ZM510.22,323.36c-6.06,2.47-13.94-1.99-14.43-6.88-.32-3.13,2.62-5.48,5.56-5.87,4.51-.63,9.14,1.61,11.27,5.55,1.5,2.77.55,6-2.4,7.2ZM520.26,288.87c-6.13,0-11.1-4.96-11.1-11.1s4.96-11.09,11.1-11.09,11.09,4.96,11.09,11.09-4.96,11.1-11.09,11.1ZM536.55,240.72c3.52-3.86,12.93.63,14.6,7.76.47,2-.19,3.7-1.28,4.84-1.1,1.15-2.9,1.76-4.78,1.4-4.76-.92-8.7-4.75-9.73-9.48-.38-1.75.13-3.36,1.18-4.52ZM552.87,305.36c-.75,5.33-5.11,9.83-10.66,10.73-2.62.43-5.11-1.32-5.35-3.61-.63-6,5.34-12.57,11.15-12.48,2.8.04,5.28,2.23,4.85,5.37ZM560.64,284.63c-6.44-5.29-3-17.11.95-16.86,5.29.33,5.3,18.43-.95,16.86Z"/>
      <path class="cls-9" d="M455.26,369.95c-.53-5.07-2.16-9.64-5.19-13.58-2.87-3.72-7.1-5.22-11.8-4.55l-4.98.71c.85-.8,1.89-1.95,1.24-3.15-.6-1.14-2.1-1.8-3.36-2.03-9.21-1.63-18.66,3.16-26.03,8.81-13.61,10.46-24.58,23.68-32.59,38.91-8.16,15.54-16.43,36.17-17.15,53.63-.18,4.37.44,8.56,1.54,12.74,1.63,6.19,5.04,11.81,10.2,15.62,9.17,6.75,22.74,6.39,33.12,1.54,10.79-5.03,19.81-12.8,27.05-22.42,13.44-17.87,21.16-36.58,25.84-58.15,2.03-9.36,3.11-18.58,2.12-28.07ZM431.32,384.67l-1.69,9.27c-3.54,13.08-9.31,25.27-16.91,36.5-4.24,6.28-8.98,11.77-14.65,16.73-2.66,2.34-5.37,4.42-8.93,5.51-2.61.8-5.13-.37-5.93-2.94-1.23-3.98-1.17-7.51-.3-11.67,1.12-5.35,2.55-10.39,4.59-15.47,6.84-16.94,17.84-34.17,32.68-44.93,1.85-1.35,3.86-2.35,5.99-2.87,2.14-.5,3.9.63,4.61,2.51.94,2.44,1.01,4.82.54,7.34Z"/>
      <path class="cls-9" d="M403.29,568.81c-1.08-2.45-3.01-3.71-5.93-3.87,1.88-2.01,2.47-4.27,1.64-6.7-.64-3.64-4.23-6.08-7.98-4.92l-13.74,4.21,8.05,27.45,13.25-4.7c4.82-1.71,6.85-6.66,4.72-11.47ZM384.83,560.67l5.62-1.75c1.3-.41,2.35.98,2.61,1.84.4,1.31.29,2.78-.87,3.48-1.66,1-3.32,1.39-5.59,2.12l-1.76-5.69ZM395.87,575.61l-5.82,2.18-2.04-6.39,6.22-1.98c1.56-.49,2.65,1.11,3.06,2.37.47,1.39.18,3.2-1.42,3.81Z"/>
      <path class="cls-9" d="M427.58,553.23l-10.23-11.52-6.87,3.21,2.83,23.99.67,5.29,5.57-2.66-.48-5.53,8.07-3.85,3.58,4.03,5.69-2.81-8.82-10.15ZM418.32,560.64l-1.35-10.96,6.62,8.08c-1.58,1.37-3.42,1.86-5.27,2.88Z"/>
      <path class="cls-8" d="M234.47,560.27l-11.72-3.87-9.48,26.46,5.94,2,3.45-8.67,7.38,2.05c4.82.6,7.84-2.44,9.34-6.36,1.85-4.82.24-9.92-4.92-11.62ZM233.45,568.9c-.33,1.53-1.09,3.49-2.8,3.56-2.14.09-4.13-.83-6.18-1.58l2.59-7.35,4.2,1.38c1.77.58,2.65,1.97,2.2,3.99Z"/>
      <path class="cls-9" d="M263.4,409.95c1.91-7.5-.5-14.83-6.84-19.25-4.24-2.96-9.07-4.37-14.34-4.78-7.44-.59-14.66.05-22.04,1.6-14.43,3.02-28.11,7.78-41.46,13.99l-14.41,7.49-9.39,6.58c-.82.57-1.57,1.77-1.58,2.75,0,.93,1.17,1.13,2.07,1.16-2.97,2.7-8.33,6.92-6.56,9.61,1.16,1.77,4.67.68,7.57-.55l-2.58,3.3c-.57.74-.67,1.7-.33,2.44.95,2.08,4.91,1.2,7.92-.3l13.68-6.84-4.05,11.09-10.93,28.16-11.31,6.42c-1.7.97-3.3,1.87-4.1,3.78-.36.85-.25,1.91.31,2.35.72.56,1.52.39,2.74.47-2.78,2.57-7.24,6.2-4.97,8.81,1.91,2.19,6.44-.04,10.1-1.38l-7.28,20.98-7.13,21.54c-.22.67.15,1.48.47,1.91.25.36,1.06.84,1.6.44l2.18-1.61-.95,3.46-15.38,11.18c-1.01.74-1.67,1.82-1.64,3,0,.66.34,1.35.82,1.31l1.52-.13-5.45,5.44c-2.67,2.67-3.36,7.17-.83,7.82,2.17.56,4.29.16,6.31-.64l3.64-1.44c-1.05,1.72-2.9,3.25-2.53,5.38.32,1.85,2.91,2.55,4.58,2.07l5.33-1.5,23.69-10.99,29.44-15.56c10.35-5.93,20.08-12.28,29.57-19.48,11.72-8.91,23.24-19.77,30.41-32.6,4.87-8.71,8.13-20.05,3.8-29.15-3.98-8.39-13.33-10.34-22.38-10.88l6.97-5.7c9.89-8.07,20.55-19.31,23.72-31.78ZM224.32,478.9c-6.12,6.9-12.86,12.88-20.46,18.54-11.4,8.47-22.96,15.87-35.35,23.05l11.95-30.28,4.73-11.79c9.4-4.96,19.52-8.49,30.1-10.18,4.06-.65,10.35-.85,12.09,1.7,1.79,2.63-.54,6.13-3.06,8.97ZM231.73,417.79l-10.56,9.91c-7.62,6.25-15.2,12.04-23.94,17.81l9.18-25.76c.45-1.23.66-2.26-.03-3.54l16.36-5.04c3.53-1.09,10.84-1.84,12.12.15.9,1.4-1.44,4.87-3.13,6.46Z"/>
    </g>
  </g>
</svg>