<?xml version="1.0" encoding="UTF-8"?>
<svg id="Layer_1" data-name="Layer 1" xmlns="http://www.w3.org/2000/svg" viewBox="0 0 648 648">
  <defs>
    <style>
      .cls-1 {
        fill: #fff;
      }
    </style>
  </defs>
  <g id="Generative_Object" data-name="Generative Object">
    <g>
      <path class="cls-1" d="M89.93,362.92l-10.46,9.13-4.91,4.73-4.74,5.14c2.91-.69,5.07-2.22,8.12-2.21l-7.1,7.99c-7.2,8.11-12.88,17.05-17.14,27.06-2.41,5.67-3.85,11.52-4.3,17.71-.34,4.66.88,9.4,3.2,13.35,3.15,5.38,9.32,7.27,15.14,5.48,4.95-1.52,9.15-4.21,13.06-7.65,5.97-5.25,10.9-11.19,15.29-17.9,7.65-11.71,14.01-23.97,19.42-36.92,5.58-13.36,10.69-26.56,14.86-40.43,3.93-13.09,7.16-25.99,9.91-39.33l2.39-13.36-12.53,4.36c-14.92,5.9-29.36,12.33-43.84,19.2-3.27,1.55-6.89,1.74-7.82-.48-.36-.86-.37-1.98.25-2.77l4.21-5.32c-4.12,1.25-8.85,3.2-11.09.48-2.58-3.13,2.55-9.11,6-12.44l5.08-4.9c-3.82.86-8.26,1.89-8.24-1.08.01-2.74,5.9-6.15,9.47-8.08,19.71-10.66,46.98-20.79,68.54-28.12,14.42-4.9,28.77-9.05,43.51-12.81l13.9-2.51c2.83-.51,8.05.6,8.46,3.47.19,1.38-.6,2.56-1.77,3.6,1.66.24,2.99.12,4.44.79,1.69.77,3.29,2.94,2.81,4.93-.5,2.04-2.08,3.8-3.79,4.78l-5.97,3.41c1.15.17,2.31-.06,3.09.69,2.02,1.92-4.68,5.49-8.56,6.99l-15.15,5.86-12.67,5.15c-1.13.46-1.64,1.24-1.89,2.44l-2.83,13.57-7.62,35.91-6.45,22.45-10.14,30.56c-4.74,14.3-10.7,27.85-17.55,41.28-6.78,13.28-14.82,25.52-24.71,36.65-6.68,7.52-14.2,13.84-22.84,18.9-9.57,5.61-20.01,8.17-31.03,7.43-9.58-.64-17.95-4.34-24.83-10.97-8.73-8.4-14.2-19.06-15.11-31.34-.74-9.97.7-19.9,4.35-29.19l4.72-10.65c6.46-11.65,14.56-22.05,25.01-30.26,2.68-2.1,5.28-3.95,8.41-5.35l-3.2,6.2c4.72-3.82,9.53-7.38,15.07-10.21,6.17-2.79,12.3-5.07,19.56-5.39Z"/>
      <path class="cls-1" d="M161.77,584.82c2.04-.98,2.69-.86,4.3.26,23.03,15.99,48.35,28.24,75.14,36.8,23.15,7.4,47.14,11.54,71.39,12.7,15.24.73,30.04-.25,45.12-2.13,44.8-5.61,87.74-22.99,124.22-49.54,40.39-29.39,71.32-67.16,92.82-112.29,15.84-33.25,25.07-69.5,26.8-106.26l-.03-20.74-.24-7.4,12.37-5.96c1.57,16.35,1.24,32.2-.35,48.34-4.65,47.25-20.77,92.75-46.52,132.54-13.45,20.79-28.98,39.91-46.94,56.9-11.53,10.9-23.79,20.9-36.85,29.9-39.4,27.15-84.95,44.12-132.59,48.94l-25.41,1.11c-19.08.13-37.7-1.84-56.39-5.67-42.65-8.73-81.7-26.6-116.93-51.78-.37-.26-.4-.34-.38-.55.03-.34.25-.28.5-.4l9.96-4.77Z"/>
      <path class="cls-1" d="M543.67,407.15c9.83,6.63,12.39,17.32,8.18,28.1-4.66,11.93-15.53,20.99-26.5,27.38-14.24,8.31-29.9,13.53-46.23,15.72-4.64.62-12.39,1.26-13.12-1.55-.26-.99.15-1.74.89-2.37l2.43-2.07-5.08.49c-3.83.37-8.46.7-9.65-2.25-1-2.47,2.29-5.32,5.21-7.21l4.08-2.65h-4.02c-1.19,0-2.34-.68-2.71-1.54-1.46-3.42,4.02-6.86,8.18-8.47,1.55-.89,3.19-.89,4.87-.32,5.66-1.22,10.73-3.08,16.07-5.13,8.44-3.23,16.47-6.78,24.12-11.54,4.13-2.57,10.05-6.5,6.97-9.9-1.36-1.5-3.3-2.14-5.24-2.63l-16.15-4.16c-5.21-1.34-10.04-3.39-14.27-6.82-5.1-4.15-7.55-10.77-6.95-17.43.64-7.2,3.87-13.96,7.94-19.87,2.19-3.18,4.44-5.6,7.18-8.29,15.35-15.02,35.49-22.23,57-19.56,3.24.4,6.5,1.52,5.82,3.3-.15.4-.78.85-1.53.91-.53-.05-.48.6,0,.53l7.82.36c2.09.1,4.86,1.67,4.78,3.94-.03.93-.63,1.59-1.73,2.47,2.12.59,3.12,2.12,2.83,4.22-.29,2.16-1.2,4.32-2.4,6.25-4.6,7.4-12.1,16.82-20.81,18.67l2.1-5.08-5.44,4.31c-2.34,1.85-5.74,4.36-7.54,3.2-1.35-.87.83-3.77,2.61-6.08-1.38.27-2.49,1.5-3.86.98-.7-.27-.56-1.85-.19-2.44l4.02-6.32,4.04-5.93c-9.55,1.93-18.05,6.34-25.36,12.39-3.95,3.27-9.34,9.44-5.49,12.16,1.44,1.01,2.97,1.64,4.68,2.13l16.84,4.88c5.64,1.64,10.76,3.96,15.59,7.22Z"/>
      <path class="cls-1" d="M460.82,296.33c2.62-.24,5.67-.25,6.52,1.53.99,2.07-1.4,4.85-3.65,6.04l-10.71,5.66c2.05.09,3.76-.74,5.66.08-.39,1.58-1.61,2.69-2.98,3.38l-24.47,12.25-34.73,15.16-7.52,2.54c-1.45.49-3.45.09-4.74-.73l-2.07-2.93c-.77-.38-1.94-.09-2.57-.8-1.34-1.5-.52-2.8-1.12-3.96-3.57-.46-2.52-4.69-1.39-9.25,3.15-12.72,7.01-25.03,11.45-37.42-2.25-2.78-.85-5.17,1.01-8.15-.18-1.95-.16-3.76,1.42-5.1l2.93-2.48,8.79-23.55,1.98-5.25c-1.22-.45-2.84-.75-3.38-1.97-.82-1.88.36-3.61,1.96-5.05-1.33.07-2.35.28-3.14-.44-.91-.83-1.38-1.9-1.11-3.17.42-2.04,2.05-2.96,3.99-4.13-1.09-.15-1.98-.21-2.36-1.05-1.31-2.84,3.05-5.61,6.47-6.72l27.98-9.1,30.57-7.54,8.13-.66c1.65-.14,3.56,1.27,3.51,3.11-.04,1.55-1.64,2.36-2.8,3.09,2.7.19,5.58.42,6.32,2.3,1.19,2.98-2,5.56-5.45,7.21-1.65.79-3.45,1.02-4.81,2.3,1.19.08,2.53-.4,3.46.29.99.73.36,2.4-.73,2.83l-8.44,3.35-33.36,10.45-4.34,10.32-3.41,9.04c8.75-3.25,17.13-6.02,25.91-8.27,3.12-.8,7.33-1.17,8.24.7.32.66.21,1.51-.36,2.15l-1.54,1.7c2-.33,3.94-.51,5.73.38,1.17.58,1.29,2.32.52,3.38-1.78,2.46-4.43,3.94-7.15,5.3-1.23.61-2.53.84-3.57,2.16,2.31-.07,4.32-.48,4.26,1.07-.02.43-.19,1.11-.73,1.39l-6.14,3.12-21.02,8.21-13.41,5.38-9,25.19,40.49-15.64c5.23-1.52,15.41-5.46,16.42-1.55.34,1.34-.18,2.3-1.53,3.85Z"/>
      <path class="cls-1" d="M201.99,281.44c1.76-1.13,3.51-.95,5.03.62,2.62-3.92,7.49-6.6,10.34-3.97.89.82.92,1.79,1,3.32,1.76-1.21,4.48-1.09,5.17.99.64,1.91-.04,4.15-.85,5.98l-8.44,19.04-9.13,22.6c-2.57,7.57-4.86,14.94-6.06,22.84-.43,2.86-.58,5.54.45,8.19.82,2.12,2.99,3.01,5.13,1.95,2.53-1.26,4.67-3.37,6.31-5.73l4.99-7.19c8.04-12.9,14.34-26.49,20-40.59l5.04-13.62c3.28-10.21,5.78-20.41,8.29-30.82,1.1-4.57,5.2-7.67,7.94-5.83.77.51,1.19,1.45,1.56,2.88,1.04-2.12,2.32-3.89,4.4-4.94,1.5-.76,3-.4,4.08.88,1.32,1.58,1.48,3.56,1.48,5.78.76-1.12,1.6-2.56,3.13-2.46,1.63.11,2.74,2.02,2.69,3.64-.12,4.3-.6,8.33-1.67,12.66-5.74,23.2-14.16,45.5-25.19,66.75-4.01,7.73-25.12,45.15-31.51,39.04-.48-.46-.51-1.12-.74-2.22l-6.64,5.69c-6.38,5.48-15.03,7.98-23.23,5.12-5.29-1.85-9.08-6.42-11.14-11.61-5.08-12.84-2-29.27,2.26-42.38l3.7-11.37c4.92-13.44,10.09-26.6,16.55-39.35,1.24-2.44,2.76-4.42,5.04-5.88Z"/>
      <path class="cls-1" d="M329.07,330.31c3.41,3.33,11.52-1.91,15.33-5.51l13.39-12.64,11.59-11.59c.67-.67,1.41-1.32,2.6-1.26-.34,3.69-2.18,6.5-3.89,9.81l6.41-5.29c.46-.38,1.57-1.39,2.24-.83.31,1.98-.76,4-1.63,5.77l-3.6,7.42c1.09-.2,1.91-1.6,2.64-1.34,2.71.98-3.43,9.67-5.9,13.11-6.34,8.85-13.53,16.87-22.36,23.24-4.96,3.58-10.17,6.09-16.23,7-7.22,1.09-14.54-.73-19.8-5.85-7.27-7.07-8.85-17.98-8.22-27.98.48-7.62,2.41-14.65,4.78-21.85,2.85-8.68,6.34-16.62,10.68-24.67,6.59-12.23,14.05-23.72,23.36-34.05,5.92-6.57,12.23-12.42,19.75-17,5.68-3.46,14.95-6.21,15.71.35,2.53-1.47,5.26-1.86,7.57-.5,3.23,1.91,5.04,5.2,5.82,8.84,2.72,12.79-4.45,31.08-13.13,40.75-.58.65-1.68,1.38-2.45.86s-.5-1.72-.81-2.64c-1.82,2.55-4.71,6.21-6.22,5.88-.41-.09-.89-.45-.92-1.02l-.16-2.84c-.98.95-2.54,2.69-4.04,1.95-1.31-.64-.86-3.03-.38-4.33,2.84-7.73,5.5-15.28,6.47-23.91-3.23,1.51-5.76,3.55-8.05,5.99-7.89,8.38-14.3,17.62-19.51,27.9l-8.06,17.99c-3,6.7-8.07,23.23-2.96,28.22Z"/>
      <path class="cls-1" d="M292.79,550.03l6.56-3.79,11.65-5.81c1.89-.94,4-1.19,5.74-3.01l-26.02,4.89-62.61,12.89-8.49,1.72,32.64-13.88,35.48-13.02,35.03-10.66c18.01-4.95,36.02-8.62,54.39-11.93l28.35-4.53,31.91-4.84c17.3-2.62,40.14-2.82,58.05-.52-18.68,3.67-37.05,7.31-55.35,12.51l11.48-.29,4.01-.53.72.08c.23.03.52.45.1.55l-4.48,1.04-12.67,3.35-26.08,6.72-37.06,9.01-40.6,10.72-27.03,7.56-15.37,3.98c-1.5.39-2.81,1.19-4.68,1.03,1.03-1.57,2.74-2.32,4.34-3.24Z"/>
      <path class="cls-1" d="M33.5,375.89l-3.77,4.21-7.51,8.51c-1.72-9.9-2.66-19.52-3.11-29.43v-24.65c.68-15.84,3.1-31.14,6.98-46.49,7.92-31.36,20.53-60.75,38.32-87.65,8.07-12.21,16.69-23.76,26.42-34.57,3.22-3.58,6.11-6.8,9.51-10.2,7.07-7.07,14.05-13.92,22.02-20.29.68,2.67.22,4.99.41,7.43l.66,8.39-3.25,2.97-14.43,14.5c-13.05,13.88-24.61,28.89-34.72,45.15-11.61,18.66-20.74,38.66-27.4,59.6-7.75,24.4-10.91,43.42-11.63,68.98-.32,11.22.54,22.08,1.5,33.54Z"/>
      <path class="cls-1" d="M271.31,364.69l-3.12,5.92c-1.75,3.32-4.92,5.78-7.48,4.4-2.13-1.14-1.43-3.97-2.08-6.17-.59,1.07-1.32,1.53-2.26,1.49-3.37-.15-2.52-6.46-1.27-11.08,4.94-18.25,10.71-36.07,17.53-53.77l18.37-47.58c1.82-4.72,4.2-11.63,8.34-12.08,1.04-.11,1.9.33,2.54.88.71.61.57,1.48.95,2.59,1.66-2.08,3.1-3.69,5.2-4.73,1.67-.83,3.35-.46,4.52.97,1.23,1.52,1.05,3.31.67,5.38,1.22-.97,2.09-2.14,3.62-2.07,2.89.14,3.07,5.1,1.13,9.61-8.38,19.49-15.94,39.1-23.25,59.09l-15.81,46.9c-.48,1.43-1.39,2.5-2.48,3.29l-1.35-.46c-.31.77-1.79,2.4-2.65,1.86-1.32-.82-.63-2.74-1.11-4.47Z"/>
      <path class="cls-1" d="M545.52,200.62c-7.8-12.29-16.41-23.52-26.23-34.12l-13.92-13.95c-42.58-39.27-98.87-63.54-156.67-67.52l-.48-5.79c-.28-3.34-2.52-5.56-4.79-7.9,34.14,2.06,67.43,9.91,98.37,23.85,43.73,19.7,81.11,50.22,108.45,89.53l8.69,13.41-13.42,2.5Z"/>
      <path class="cls-1" d="M387.61,212.89c-3.33-1.11-6.04-1.93-9.54-1.68l11.42-7.19c.36-.23.55-.58.45-.79-.48-1.01-3.31.96-5.81,1.14l18.64-11.95c-7.05-.38-13.23.86-20.22,1.22,6.6-3.77,13.36-6.25,20.49-8.59,12.41-4.08,24.85-6.95,38.13-8.47-7.15,3.49-14.21,6.66-20.77,11.57l18.27-3.2c17.66-3.09,35.22-5.12,53.57-5.02l-47.22,14.31-23.99,7.44-33.43,11.2Z"/>
      <path class="cls-1" d="M115.23,550.34c-1.54,1.64-2.3,3.48-3.3,5.23l-11.83-11.7c-12.16-12.63-23.05-26.19-32.65-41.04l13.14-3.06c8.34,12.06,17.2,23.15,26.98,33.81l11.97,12.18-4.3,4.58Z"/>
      <polygon class="cls-1" points="311.44 612.47 304.84 612.46 306.02 582.41 312.56 582.41 312.4 594.68 321.65 582.37 329.26 582.12 319.41 595.13 329.31 611.86 321.58 612.21 315.05 600.22 311.85 604.03 311.44 612.47"/>
      <polygon class="cls-1" points="382.9 590.68 372.31 593.35 373.64 599.84 385.99 596.86 387.1 602.52 368.04 606.93 362.83 577.52 381.39 573.08 382.55 578.73 370.3 581.75 371.45 587.78 381.58 585.38 382.9 590.68"/>
      <path class="cls-1" d="M279.32,605c1.57,1.11,3.85,1.32,5.4.53,1.68-.86,2.41-2.53,2.92-4.4l6.29.96c-.35,2.13-.86,4.36-2.34,5.98-2.97,3.27-7.49,4.07-11.71,3.37-5.55-.92-9.44-5.21-9.22-11,.15-3.92.94-7.82,2.08-11.55,1.63-5.35,6.49-8.43,11.98-8.21,3.96.16,7.73,1.54,9.81,5.02,1.31,2.2,1.22,4.87.59,7.22l-6.12-.99c.38-2.63-.71-4.49-3.03-5.2-3.05-.93-6,.64-6.59,3.85l-1.83,9.91c-.29,1.58.33,3.5,1.77,4.52Z"/>
      <path class="cls-1" d="M588.06,328.78c4.16-5.37,8.41-10.03,11.14-15.99.54-1.19,1.24-1.85,2.72-1.63l33.78-2.78-22.95,9.72-24.69,10.68Z"/>
      <path class="cls-1" d="M482.56,325.01l3.54,4.35c-5.88.15-11.09,1.05-16.7,2.02l-33.18,7.98,22.17-11.86,18.95-9.76,3.03,4.56c-1.75,1.5-3.71,2.26-5.9,3.29.35.34.85.29,1.47.22l6.62-.8Z"/>
      <polygon class="cls-1" points="356.85 602.97 357.76 608.74 339.82 611.13 337.28 581.07 344.03 580.38 346.22 604.12 356.85 602.97"/>
      <polygon class="cls-1" points="475.6 563.27 460.79 571.94 446.66 546.19 452.34 542.96 463.89 563.43 472.81 557.93 475.6 563.27"/>
      <polygon class="cls-1" points="497.62 547.65 483.6 557.58 467.34 533.24 472.63 529.51 485.61 548.96 494.28 542.89 497.62 547.65"/>
      <path class="cls-1" d="M576.55,216.37c-.78.52-1.67,1.17-2.5,1.09-4.51-3.1-9.18-5.27-14.6-7.38l42.66-8.01-25.56,14.3Z"/>
      <rect class="cls-1" x="242.4" y="588.76" width="30.22" height="6.95" transform="translate(-379.56 698) rotate(-75.93)"/>
      <path class="cls-1" d="M521.75,521.79l-12.22,10.58c-1.64,1.42-3.97,1.18-5.26-.38s-1.14-4.09.64-5.3l8.5-5.8,22.17-14.12c-1.1,2.89-3.38,4.46-5.31,6.41l-8.52,8.61Z"/>
      <path class="cls-1" d="M607.14,285.97c.36-3.41.69-6.5.48-9.79-.03-.74.19-1.36.89-1.65l31.47-3.32-32.84,14.76Z"/>
      <polygon class="cls-1" points="600.92 246.17 596.3 237.82 626.77 232.97 600.92 246.17"/>
      <path class="cls-1" d="M203.91,585.43l-9.9-4.11c-2.82-1.17-5.56-2.21-8.08-4.6,6.99-.31,13.68.34,20.27,1.64,2.07.41,2.83,2.85,2.45,4.38-.51,2.03-2.44,3.65-4.74,2.69Z"/>
      <g>
        <path class="cls-1" d="M252.47,133.55c-24.63,13.71-38.02,41.81-33.32,69.48,1.9,11.22,6.63,21.55,13.99,30.18,4.29,5.03,9.39,8.71,15.09,12.31l-4.84,2.37c-2.13-1.17-4.19-1.31-6.73-.34-1.1-3.41-3.45-5.61-5.9-8.02-.62-1.5-.89-3.41-2-4.78-5.65-6.94-14.43-8.15-23.3-7l-2.18-33.95-3.71-62.1,21.8-7.76,80.98-27.73,36.04-12.09,1.26,17.62,1.08,16.07.93,12.44,5.58,86.64c-7.4,4.64-13.92,10.19-19.72,16.62l-4.05-1.08,7.09-9.56c4.84-7.9,7.75-16.31,9.16-25.5,1.27-8.27.71-16.32-1.29-24.51-2.53-10.39-7.66-19.71-14.61-27.77-2.35-2.72-4.88-4.79-7.62-7.04-8.29-6.81-18.02-10.59-28.73-11.62-12.1-1.16-24.13,1.08-34.99,7.13Z"/>
        <path class="cls-1" d="M167.56,173.74l12.66-17.38,10.8-14.28,6.06,87.89c-19.3,5.08-38.12,10.66-57.29,17.07l-4.88-83.89-1.29-24.45-.13-9.4,8.38,15.39c1.11,2.05,2.16,3.93,3.69,5.76l-1.78-8.26,3.72,5.46,14.15,24.99c.62,1.1,1.55,1.91,2.47,2.12s2.65.07,3.44-1.02Z"/>
        <path class="cls-1" d="M136.29,100.05c33.82-11.91,66.75-22.42,100.67-32.68l-1.14,9.68c-.1.85-4.42,3.44-2.41,6.83.79,1.33,2.07,2.51,3.59,3.16,9.8,4.22,21.2,3.85,30.39-1.45,2.89-1.67,4.25-4.78,2.98-7.63-1.18-.96-1.58-2.23-1.36-3.74l1.67-11.49,34.86,8.5,25.71,6.74-21.46,7.16-85.5,28.54-26.88,8.86c-1.12.37-2.09.73-3.27.6l-20.45-7.81c-12.43-4.9-24.68-9.46-37.4-15.27Z"/>
        <path class="cls-1" d="M188.26,130.42l-10.12,15.66-14.15,21.51-13.08-22.7c-6.28-10.9-12.11-21.71-17.59-32.99l-1.14-4.29,12.56,4.95,17.16,7.08,26.36,10.77Z"/>
        <path class="cls-1" d="M326.61,157.92c-8.23-13.28-21.63-22.4-37.29-24.35l-12.81-.15c-10.7.74-24.6,6.77-32.34,14.16-10.35,9.86-17,23.07-18.94,37.24-.7,5.17-.58,9.78.09,14.83,1.6,12.18,6.83,23.27,15.54,31.91,5.06,5.03,10.7,9.09,17.4,11.6,3.94-1.67,8.05-1.65,11.95-.27l7.01,3.48c1.21.61,2.81.09,4.02-.03,3.34-9.51,11.43-16.68,21.71-14.07,4.01-2.23,8.62-2.45,12.56-.26,21.03-19.25,26.01-49.99,11.09-74.08ZM244.01,199.22c-1.93,1.84-4.38,1.74-6.26.11-4.47-3.85-4.29-13.12.74-16.46,1.84-1.22,4.03-.99,5.68.43,3.94,3.4,4.47,11.5-.16,15.92ZM251.13,157.68c1.16-5.03,5.51-8.78,10.74-8.96,1.94-.07,3.58,1.04,4.51,2.27,2.82,3.79-1.68,11.92-9.81,12.93-1.77.22-3.26-.42-4.4-1.59-1.07-1.11-1.43-2.86-1.02-4.65ZM267.66,228.25c-1.15,1.9-3.54,3.24-6.34,2.97-3.25-.31-5.86-2.14-7.78-4.49-2.25-2.73-2.39-6.83.11-9.45,1.75-1.82,4.7-2.39,7.07-1.64,5.41,1.7,9.89,7.7,6.94,12.6ZM281.06,196.98c-5.5,0-9.97-4.46-9.97-9.97s4.47-9.97,9.97-9.97,9.97,4.47,9.97,9.97-4.46,9.97-9.97,9.97ZM297.16,149.69c1.13-1.24,3.02-2.2,5.06-1.83,3.82.69,7.27,3.52,8.84,7.16,1.05,2.43.51,4.85-.96,6.46-1.64,1.81-4.04,2.03-6.47,1.23-3.7-1.22-7.01-3.98-7.65-7.92-.3-1.9.01-3.8,1.19-5.11ZM311.74,217.31c-.91,4.41-4.25,8.17-8.88,9.37-3.09.79-6.42-1.15-6.86-4.12-.77-5.29,2.53-9.93,7.26-12,2.21-.96,4.61-.76,6.35.64,1.74,1.39,2.64,3.67,2.13,6.11ZM323.86,196.35c-1.7.99-3.94.05-4.91-1.49-2.83-4.54-2.52-10.33,1.01-14.31.86-.97,2.17-1.31,3.38-1.05,4.64,1,6.3,13.47.52,16.85Z"/>
        <g>
          <path class="cls-1" d="M304.02,7.14l.83-.05,7.98,11.95c.72.7.84,1.32.38,1.86l-13.9,4.57-1.54.12c-3.16-3.5-6.06-7.59-8.28-11.82-.12-.23-.14-.52-.16-.82s.01-.62.06-.93l14.63-4.88Z"/>
          <path class="cls-1" d="M263.75,48.74l-.81,6.62-.64,6.61c-.61,1.55-3.26,1.53-4.83,1.48-3.85-.12-7.34-2.16-10.46-4.25l-.28-1.06,2.35-17.19.66-.46c3.78,4.04,8.17,6.54,13.19,7.49l.81.76Z"/>
          <path class="cls-1" d="M278.36,15.57l.83-.03c2.78,4.4,5.57,8.81,8.35,13.21l-.38.74-12.42,3.98c-.86.18-1.19.22-1.94-.14-3.01-1.46-7.9-9.01-9.36-12.22l.37-.79,11.48-3.67,3.08-1.09Z"/>
          <polygon class="cls-1" points="315.14 3.47 320.82 12.47 324.25 17.29 313.21 20.9 304.02 7.14 315.14 3.47"/>
          <path class="cls-1" d="M289.39,12.02c2.25,4.54,5.12,8.57,8.28,12.53.5.62,1.01.93,1.64.93l-12.15,4.01-8.8-13.92,11.03-3.54Z"/>
          <path class="cls-1" d="M266.38,39.73c-1.18,1.87-1.76,3.88-2.14,6.13l-.48,2.87c-4.1-.14-7.84-1.9-10.92-4.68l-2.63-2.38c-.37-.33-.75-.57-1.11-.74.4-2.9.7-5.7,1.67-8.44l1.4-2.66c.97-.28,1.9.11,2.8,1.17,3.07,3.46,6.66,6.04,10.77,7.76l.64.96Z"/>
          <path class="cls-1" d="M262.31,61.97l-1.4,10.97c-.13.35-.29.74-.61.92-3.52,2.01-12.94-.8-15.1-4.31l1.54-11.41c5.12,3.55,9.71,5.91,15.57,3.83Z"/>
          <path class="cls-1" d="M261.57,21.34l1,.68c1.85,4.56,5.12,8.32,8.42,11.89l.15,1.21c-2.09.96-3.58,2.74-4.77,4.62-3.22-.97-6.31-2.86-8.87-5.33-1.71-1.66-3.28-3.34-5.34-4.56,2.05-3.9,5.45-6.69,9.4-8.5Z"/>
          <path class="cls-1" d="M260.91,72.94l-.77,7.42c-5.42,2.33-11.38,2.92-16.42-.01l1.49-10.8c.08-.08.19-.16.28-.18.44-.11,6.34,6.49,15.42,3.57Z"/>
          <path class="cls-1" d="M274.73,33.47l-3.59,1.64c-3.7-3.97-7.84-8.6-9.58-13.78l2.23-1.02,3.52,6.06c1.55,2.47,5.2,6.61,7.41,7.1Z"/>
          <path class="cls-1" d="M328.47.33c-1.52-.53-2.52-.37-4.09.14l-9.24,3-.32.82c2.68,4.43,5.53,8.77,8.56,12.99h.87s7.96-2.94,7.96-2.94c1.48-.54,1.24-2.83,1.46-4.06.77-4.28-.96-8.49-5.21-9.97Z"/>
        </g>
      </g>
      <path class="cls-1" d="M371.55,369.14c-12.17-5.57-31.44-3.92-44.72-.87-12.57,2.89-24.53,7.3-35.85,13.28l-9.72,6.03c-1.51.94-3.1,3.66-2.18,4.67.3.32.77.48,1.44.66l-2.61,2.39c-2.17,2.01-3.76,4.93-2.42,6.59,1.15,1.4,4.3.58,6.83-.35-2.04,2.56-4.56,5.35-2.56,6.82,2.78,2.05,9.16-1.82,13.76-3.9l-6.12,18.56-7.36,21.44-3.11,1.97c-2.92,1.85-4.61,5-2.56,7.33-1.42,1.6-2.53,3.31-2.62,5.42-.08,1.77.93,2.89,2.57,3.18l-13.73,44.74c-1.32,4.28-2.45,9.64.76,9.91,1.06.08,1.77-.73,2.66-1.73l.24,4c.06,1.01.68,1.9,1.47,2.27,2.27,1.07,5.45-1.31,7.02-3.85l4.1-6.62c-.02,2.62.57,4.9,1.97,4.83.36-.02.82-.16,1.12-.51l2.22-2.55c2.47,2.63,4.09-2.72,5.62-7.15l12.97-37.58,10.35,11.07c6.53,6.98,13.51,13.09,21.34,18.58,4.16,2.91,8.36,5.25,13.19,6.82,3.55,1.16,7.67.08,7.78-2.06.04-.85-.45-1.52-.96-2.42,3.14.71,5.78,1.85,8.95,1.8,2.23-.03,4.84-1.1,5.55-3.24.48-1.42-.73-2.57-1.36-4.06,1.76.49,3.62,1.1,5.33.15,1-.56,1.87-1.69,1.91-2.65.03-.82-.29-2.35-1.1-3.02l-16.1-13.43-18.92-18.15c-2.61-2.51-4.98-4.94-7.02-7.92,10.9-6.74,21.16-13.97,30.73-22.43,7.4-6.53,13.86-13.66,18.93-22.08,2.76-4.6,4.7-9.42,5.11-14.76.8-10.09-3.89-17.08-12.92-21.22ZM343.49,406.73c-9.31,7.96-18.88,15.13-29.45,22.3l10.13-29.49c.44-1.28.37-2.3-.43-3.58,6.96-2.48,28.27-8.45,30.71-3.73,1.58,3.07-7.28,10.97-10.96,14.51Z"/>
      <path class="cls-1" d="M595.18,262.93c-2.33-9.92-7.11-18.88-13.83-26.47-2.73-3.07-5.21-5.99-8.63-8.18l-8.96-5.73c-11.52-6.17-24.72-8.58-37.73-6.15-16.1,3.01-30.21,12.28-39.46,25.86-16.4,24.07-13.59,57.66,6.81,78.55,8.13,8.32,18.37,13.72,29.63,16.53,9.39-2.28,19.7-2.97,28.88-.33l8.05-2.69c7.44-2.93,13.75-7.09,19.24-12.66l2.51-2.54c9.48-10.93,14.95-24.45,15.47-38.99.21-5.93-.62-11.42-1.98-17.19ZM525.99,229.85c6.51-5.22,16.54-3.3,17,.19.75,5.74-14.69,7.61-17.18,2.79-.41-.78-.66-2.31.18-2.98ZM502.69,299.17c-1.41,2.6-4.11,3.29-6.7,1.77-4.71-2.76-7.12-8.87-5.67-14.21.5-1.81,2.05-3.03,3.16-3.61,2.09-.62,3.88-.07,5.43,1.18,4.05,3.24,6.33,10.19,3.79,14.88ZM501.38,261.72c-3.49,1-6.63-1.79-6.55-5.2.12-5.24,3.44-9.94,8.1-12.14,1.98-.94,4.48-.85,6.14.45,4.28,3.35,1.06,14.38-7.69,16.89ZM529.71,325.1c-6.34,2.59-14.59-2.08-15.11-7.21-.33-3.28,2.74-5.73,5.83-6.15,4.72-.66,9.57,1.68,11.8,5.81,1.57,2.9.58,6.28-2.52,7.54ZM540.22,288.97c-6.42,0-11.62-5.2-11.62-11.62s5.2-11.61,11.62-11.61,11.61,5.2,11.61,11.61-5.2,11.62-11.61,11.62ZM557.28,238.56c3.68-4.04,13.54.66,15.29,8.13.49,2.09-.2,3.88-1.34,5.06-1.16,1.21-3.03,1.85-5,1.46-4.98-.96-9.11-4.97-10.19-9.92-.4-1.84.13-3.52,1.24-4.73ZM574.37,306.24c-.78,5.58-5.35,10.29-11.16,11.23-2.74.45-5.35-1.38-5.6-3.79-.66-6.28,5.59-13.16,11.68-13.07,2.93.04,5.53,2.33,5.08,5.62ZM582.51,284.54c-6.75-5.54-3.15-17.92.99-17.66,5.54.35,5.55,19.3-.99,17.66Z"/>
      <path class="cls-1" d="M472.16,373.88c-.56-5.31-2.26-10.1-5.44-14.22-3-3.9-7.44-5.47-12.36-4.77l-5.22.74c.89-.84,1.98-2.04,1.3-3.3-.63-1.2-2.2-1.89-3.52-2.12-9.64-1.7-19.55,3.31-27.26,9.22-14.25,10.95-25.75,24.8-34.13,40.74-8.54,16.28-17.2,37.87-17.96,56.16-.19,4.58.46,8.96,1.61,13.34,1.71,6.48,5.28,12.37,10.69,16.36,9.6,7.07,23.82,6.69,34.69,1.61,11.29-5.27,20.74-13.41,28.32-23.48,14.08-18.71,22.16-38.31,27.05-60.9,2.12-9.8,3.26-19.45,2.22-29.4ZM447.08,389.3l-1.77,9.71c-3.7,13.7-9.75,26.47-17.71,38.23-4.44,6.58-9.41,12.33-15.34,17.52-2.79,2.45-5.62,4.63-9.36,5.77-2.73.84-5.37-.39-6.21-3.07-1.29-4.17-1.23-7.86-.31-12.22,1.18-5.6,2.67-10.88,4.81-16.2,7.16-17.74,18.68-35.78,34.22-47.05,1.94-1.41,4.04-2.47,6.27-3,2.24-.53,4.08.66,4.83,2.63.98,2.56,1.06,5.04.57,7.68Z"/>
      <path class="cls-1" d="M417.73,582.14c-1.13-2.57-3.16-3.89-6.21-4.05,1.97-2.1,2.59-4.48,1.71-7.01-.67-3.82-4.43-6.36-8.36-5.16l-14.39,4.4,8.43,28.75,13.87-4.92c5.04-1.79,7.17-6.97,4.94-12.02ZM398.4,573.62l5.89-1.84c1.36-.43,2.46,1.02,2.73,1.93.42,1.37.3,2.91-.91,3.64-1.74,1.05-3.48,1.45-5.86,2.22l-1.85-5.96ZM409.96,589.25l-6.1,2.28-2.13-6.69,6.52-2.07c1.63-.52,2.77,1.17,3.21,2.49.49,1.45.19,3.35-1.49,3.99Z"/>
      <path class="cls-1" d="M443.16,565.82l-10.72-12.07-7.2,3.36,2.96,25.13.7,5.54,5.84-2.79-.51-5.79,8.45-4.03,3.74,4.22,5.96-2.94-9.23-10.63ZM433.47,573.57l-1.41-11.48,6.93,8.46c-1.65,1.43-3.58,1.95-5.52,3.01Z"/>
      <path class="cls-1" d="M240.93,573.19l-12.27-4.05-9.93,27.71,6.22,2.09,3.61-9.08,7.73,2.15c5.04.63,8.21-2.56,9.78-6.66,1.94-5.04.25-10.39-5.16-12.17ZM239.87,582.23c-.34,1.6-1.15,3.65-2.93,3.72-2.24.09-4.32-.87-6.47-1.65l2.71-7.69,4.39,1.44c1.86.61,2.77,2.06,2.3,4.18Z"/>
      <path class="cls-1" d="M271.24,415.77c2-7.85-.53-15.53-7.16-20.15-4.44-3.1-9.5-4.58-15.02-5-7.79-.62-15.35.05-23.08,1.67-15.11,3.17-29.44,8.15-43.41,14.65l-15.09,7.84-9.83,6.89c-.86.6-1.64,1.86-1.65,2.88,0,.97,1.23,1.19,2.17,1.22-3.11,2.83-8.73,7.25-6.87,10.07,1.22,1.86,4.89.71,7.93-.58l-2.7,3.46c-.6.77-.7,1.78-.35,2.56.99,2.18,5.15,1.26,8.29-.31l14.33-7.16-4.24,11.61-11.45,29.49-11.84,6.73c-1.78,1.01-3.46,1.96-4.29,3.96-.38.89-.26,2,.32,2.47.75.59,1.59.41,2.87.49-2.91,2.69-7.58,6.49-5.21,9.22,2,2.29,6.75-.04,10.57-1.44l-7.62,21.97-7.47,22.56c-.23.7.16,1.55.49,2,.26.38,1.11.88,1.67.46l2.28-1.68-.99,3.62-16.11,11.71c-1.06.77-1.75,1.91-1.71,3.15.01.69.36,1.41.86,1.37l1.59-.13-5.7,5.69c-2.8,2.8-3.52,7.51-.87,8.19,2.27.59,4.5.16,6.61-.67l3.82-1.51c-1.1,1.81-3.03,3.4-2.65,5.63.33,1.94,3.04,2.67,4.8,2.17l5.58-1.57,24.81-11.51,30.83-16.3c10.84-6.21,21.03-12.86,30.96-20.4,12.27-9.33,24.34-20.7,31.84-34.14,5.1-9.12,8.51-21,3.98-30.53-4.17-8.79-13.96-10.83-23.43-11.4l7.3-5.97c10.36-8.45,21.52-20.23,24.84-33.28ZM230.31,487.98c-6.41,7.23-13.47,13.49-21.42,19.41-11.93,8.87-24.04,16.62-37.02,24.14l12.51-31.71,4.95-12.35c9.84-5.2,20.44-8.89,31.52-10.67,4.25-.68,10.84-.89,12.66,1.78,1.88,2.75-.57,6.42-3.21,9.4ZM238.07,423.98l-11.06,10.38c-7.98,6.55-15.92,12.6-25.07,18.65l9.61-26.97c.47-1.29.69-2.36-.03-3.7l17.13-5.28c3.69-1.14,11.36-1.93,12.7.15.94,1.46-1.51,5.1-3.28,6.77Z"/>
    </g>
  </g>
</svg>